<?xml version="1.0" encoding="UTF-8" standalone="no"?>
<!DOCTYPE svg PUBLIC "-//W3C//DTD SVG 1.1//EN" "http://www.w3.org/Graphics/SVG/1.1/DTD/svg11.dtd">
<svg width="100%" height="100%" viewBox="0 0 15 15" version="1.1" xmlns="http://www.w3.org/2000/svg" xmlns:xlink="http://www.w3.org/1999/xlink" xml:space="preserve" xmlns:serif="http://www.serif.com/" style="fill-rule:evenodd;clip-rule:evenodd;stroke-linejoin:round;stroke-miterlimit:2;">
    <path d="M12.146,1.146C12.342,0.951 12.658,0.951 12.854,1.146L14.854,3.146C15.049,3.342 15.049,3.658 14.854,3.854L10.911,7.796C10.835,7.872 10.747,7.935 10.651,7.984L6.724,9.947C6.531,10.044 6.299,10.006 6.146,9.854C5.994,9.701 5.957,9.469 6.053,9.276L8.016,5.349C8.065,5.253 8.128,5.165 8.204,5.089L12.146,1.146ZM12.5,2.207L8.911,5.796L7.873,7.873L8.127,8.127L10.204,7.089L13.793,3.5L12.5,2.207ZM10,2L9,3L4.9,3C4.472,3 4.181,3 3.956,3.019C3.736,3.037 3.624,3.069 3.546,3.109C3.358,3.205 3.205,3.358 3.109,3.546C3.069,3.624 3.037,3.736 3.019,3.956C3,4.181 3,4.472 3,4.9L3,11.1C3,11.528 3,11.819 3.019,12.044C3.037,12.264 3.069,12.376 3.109,12.454C3.205,12.642 3.358,12.795 3.546,12.891C3.624,12.931 3.736,12.963 3.956,12.981C4.181,13 4.472,13 4.9,13L11.1,13C11.528,13 11.819,13 12.044,12.981C12.264,12.963 12.376,12.931 12.454,12.891C12.642,12.795 12.795,12.642 12.891,12.454C12.931,12.376 12.963,12.264 12.981,12.044C13,11.819 13,11.528 13,11.1L13,7L14,6L14,11.121C14,11.523 14,11.855 13.978,12.126C13.955,12.407 13.906,12.665 13.782,12.908C13.59,13.284 13.284,13.59 12.908,13.782C12.665,13.906 12.407,13.955 12.126,13.978C11.855,14 11.523,14 11.121,14L4.879,14C4.477,14 4.145,14 3.874,13.978C3.593,13.955 3.335,13.906 3.092,13.782C2.716,13.59 2.41,13.284 2.218,12.908C2.094,12.665 2.045,12.407 2.022,12.126C2,11.855 2,11.523 2,11.121L2,4.879C2,4.477 2,4.145 2.022,3.874C2.045,3.593 2.094,3.335 2.218,3.092C2.41,2.716 2.716,2.41 3.092,2.218C3.335,2.094 3.593,2.045 3.874,2.022C4.145,2 4.477,2 4.879,2L10,2Z" style="fill:white;"/>
</svg>
