<?xml version="1.0" encoding="UTF-8" standalone="no"?>
<!DOCTYPE svg PUBLIC "-//W3C//DTD SVG 1.1//EN" "http://www.w3.org/Graphics/SVG/1.1/DTD/svg11.dtd">
<svg width="100%" height="100%" viewBox="0 0 24 24" version="1.1" xmlns="http://www.w3.org/2000/svg" xmlns:xlink="http://www.w3.org/1999/xlink" xml:space="preserve" xmlns:serif="http://www.serif.com/" style="fill-rule:evenodd;clip-rule:evenodd;stroke-linecap:round;stroke-linejoin:round;">
    <circle cx="12" cy="12" r="3" style="fill:none;stroke:white;stroke-width:2px;"/>
    <path d="M19.4,15C19.128,15.616 19.259,16.339 19.73,16.82L19.79,16.88C20.165,17.255 20.377,17.764 20.377,18.295C20.377,18.826 20.165,19.335 19.79,19.71C19.415,20.085 18.906,20.297 18.375,20.297C17.844,20.297 17.335,20.085 16.96,19.71L16.9,19.65C16.419,19.179 15.696,19.048 15.08,19.32C14.477,19.579 14.083,20.174 14.08,20.83L14.08,21C14.08,22.097 13.177,23 12.08,23C10.983,23 10.08,22.097 10.08,21L10.08,20.91C10.064,20.234 9.635,19.633 9,19.4C8.384,19.128 7.661,19.259 7.18,19.73L7.12,19.79C6.745,20.165 6.236,20.377 5.705,20.377C5.174,20.377 4.665,20.165 4.29,19.79C3.915,19.415 3.703,18.906 3.703,18.375C3.703,17.844 3.915,17.335 4.29,16.96L4.35,16.9C4.821,16.419 4.952,15.696 4.68,15.08C4.421,14.477 3.826,14.083 3.17,14.08L3,14.08C1.903,14.08 1,13.177 1,12.08C1,10.983 1.903,10.08 3,10.08L3.09,10.08C3.766,10.064 4.367,9.635 4.6,9C4.872,8.384 4.741,7.661 4.27,7.18L4.21,7.12C3.835,6.745 3.623,6.236 3.623,5.705C3.623,5.174 3.835,4.665 4.21,4.29C4.585,3.915 5.094,3.703 5.625,3.703C6.156,3.703 6.665,3.915 7.04,4.29L7.1,4.35C7.581,4.821 8.304,4.952 8.92,4.68L9,4.68C9.603,4.421 9.997,3.826 10,3.17L10,3C10,1.903 10.903,1 12,1C13.097,1 14,1.903 14,3L14,3.09C14.003,3.746 14.397,4.341 15,4.6C15.616,4.872 16.339,4.741 16.82,4.27L16.88,4.21C17.255,3.835 17.764,3.623 18.295,3.623C18.826,3.623 19.335,3.835 19.71,4.21C20.085,4.585 20.297,5.094 20.297,5.625C20.297,6.156 20.085,6.665 19.71,7.04L19.65,7.1C19.179,7.581 19.048,8.304 19.32,8.92L19.32,9C19.579,9.603 20.174,9.997 20.83,10L21,10C22.097,10 23,10.903 23,12C23,13.097 22.097,14 21,14L20.91,14C20.254,14.003 19.659,14.397 19.4,15Z" style="fill:none;fill-rule:nonzero;stroke:white;stroke-width:2px;"/>
</svg>
